<svg xmlns="http://www.w3.org/2000/svg" viewBox="0 0 512 512"><path d="m0,0h512v512h-512z"/><g fill="#fff"><path d="m229.76 30.14c-18.2 4.601-25.84 25.275-28.739 40.695l-24.53 19.682c7.87-.308 15.603-.402 23.367-.517.661 14.1 4.387 27.832 9.954 36.36l-35.16-6.108-68.65 75.66 77.34 55.88 1.616 16.838-34.19 215.76h38.4l38.3-169.26 47.865 169.26h37.49l-46.44-214.34 4.492-95.44 50.871 45.958c0 0 63.22-53.49 79.76-70.04.331-19.666-9.405-31.996-9.405-31.996l-67.806 62.05-51.52-43.11-23.399-4.105c8.217-14.331 14.697-32.753 16.418-49.578 10.02-2.281 20.5-5.44 31.673-9.825l-36.29-16.547c-1.964-7.07-16.547-28.483-31.407-27.28m-46.934 123.24l.355 64.09-31.511-23.755z"/><path d="m326.34 484.38l71.18-364.04 8.476-92.74-23.621 76.19-73.24 364.04z"/></g></svg>